<svg width="96" height="96" viewBox="0 0 96 96" fill="none" xmlns="http://www.w3.org/2000/svg">
<path fill-rule="evenodd" clip-rule="evenodd" d="M92.9032 1.54839C92.9032 2.40354 93.5965 3.09677 94.4516 3.09677C95.3068 3.09677 96 2.40354 96 1.54839C96 0.693237 95.3068 0 94.4516 0C93.5965 0 92.9032 0.693237 92.9032 1.54839ZM82.5808 1.54839C82.5808 2.40354 83.274 3.09677 84.1292 3.09677C84.9843 3.09677 85.6776 2.40354 85.6776 1.54839C85.6776 0.693237 84.9843 0 84.1292 0C83.274 0 82.5808 0.693237 82.5808 1.54839ZM73.8061 3.09677C72.951 3.09677 72.2577 2.40354 72.2577 1.54839C72.2577 0.693237 72.951 0 73.8061 0C74.6613 0 75.3545 0.693237 75.3545 1.54839C75.3545 2.40354 74.6613 3.09677 73.8061 3.09677ZM61.9353 1.54839C61.9353 2.40354 62.6285 3.09677 63.4837 3.09677C64.3388 3.09677 65.0321 2.40354 65.0321 1.54839C65.0321 0.693237 64.3388 0 63.4837 0C62.6285 0 61.9353 0.693237 61.9353 1.54839ZM53.1613 3.09677C52.3061 3.09677 51.6129 2.40354 51.6129 1.54839C51.6129 0.693237 52.3061 0 53.1613 0C54.0164 0 54.7096 0.693237 54.7096 1.54839C54.7096 2.40354 54.0164 3.09677 53.1613 3.09677ZM41.2904 1.54839C41.2904 2.40354 41.9837 3.09677 42.8388 3.09677C43.694 3.09677 44.3872 2.40354 44.3872 1.54839C44.3872 0.693237 43.694 0 42.8388 0C41.9837 0 41.2904 0.693237 41.2904 1.54839ZM32.5158 3.09677C31.6606 3.09677 30.9674 2.40354 30.9674 1.54839C30.9674 0.693237 31.6606 0 32.5158 0C33.3709 0 34.0642 0.693237 34.0642 1.54839C34.0642 2.40354 33.3709 3.09677 32.5158 3.09677ZM20.645 1.54839C20.645 2.40354 21.3382 3.09677 22.1933 3.09677C23.0485 3.09677 23.7417 2.40354 23.7417 1.54839C23.7417 0.693237 23.0485 0 22.1933 0C21.3382 0 20.645 0.693237 20.645 1.54839ZM11.8709 3.09677C11.0157 3.09677 10.3225 2.40354 10.3225 1.54839C10.3225 0.693237 11.0157 0 11.8709 0C12.7261 0 13.4193 0.693237 13.4193 1.54839C13.4193 2.40354 12.7261 3.09677 11.8709 3.09677ZM8.39233e-05 1.54839C8.39233e-05 2.40354 0.693314 3.09677 1.54847 3.09677C2.40362 3.09677 3.09686 2.40354 3.09686 1.54839C3.09686 0.693237 2.40362 0 1.54847 0C0.693314 0 8.39233e-05 0.693237 8.39233e-05 1.54839ZM94.4516 13.4194C93.5965 13.4194 92.9032 12.7261 92.9032 11.871C92.9032 11.0158 93.5965 10.3226 94.4516 10.3226C95.3068 10.3226 96 11.0158 96 11.871C96 12.7261 95.3068 13.4194 94.4516 13.4194ZM84.1292 13.4194C83.274 13.4194 82.5808 12.7262 82.5808 11.8711C82.5808 11.0159 83.274 10.3227 84.1292 10.3227C84.9843 10.3227 85.6776 11.0159 85.6776 11.8711C85.6776 12.7262 84.9843 13.4194 84.1292 13.4194ZM72.2577 11.8711C72.2577 12.7262 72.951 13.4194 73.8061 13.4194C74.6613 13.4194 75.3545 12.7262 75.3545 11.8711C75.3545 11.0159 74.6613 10.3227 73.8061 10.3227C72.951 10.3227 72.2577 11.0159 72.2577 11.8711ZM63.4837 13.4194C62.6285 13.4194 61.9353 12.7262 61.9353 11.8711C61.9353 11.0159 62.6285 10.3227 63.4837 10.3227C64.3388 10.3227 65.0321 11.0159 65.0321 11.8711C65.0321 12.7262 64.3388 13.4194 63.4837 13.4194ZM51.6129 11.8711C51.6129 12.7262 52.3061 13.4194 53.1613 13.4194C54.0164 13.4194 54.7096 12.7262 54.7096 11.8711C54.7096 11.0159 54.0164 10.3227 53.1613 10.3227C52.3061 10.3227 51.6129 11.0159 51.6129 11.8711ZM42.8388 13.4194C41.9837 13.4194 41.2904 12.7262 41.2904 11.8711C41.2904 11.0159 41.9837 10.3227 42.8388 10.3227C43.694 10.3227 44.3872 11.0159 44.3872 11.8711C44.3872 12.7262 43.694 13.4194 42.8388 13.4194ZM30.9674 11.8711C30.9674 12.7262 31.6606 13.4194 32.5158 13.4194C33.3709 13.4194 34.0642 12.7262 34.0642 11.8711C34.0642 11.0159 33.3709 10.3227 32.5158 10.3227C31.6606 10.3227 30.9674 11.0159 30.9674 11.8711ZM22.1933 13.4194C21.3382 13.4194 20.645 12.7262 20.645 11.8711C20.645 11.0159 21.3382 10.3227 22.1933 10.3227C23.0485 10.3227 23.7417 11.0159 23.7417 11.8711C23.7417 12.7262 23.0485 13.4194 22.1933 13.4194ZM10.3225 11.8711C10.3225 12.7262 11.0157 13.4194 11.8709 13.4194C12.7261 13.4194 13.4193 12.7262 13.4193 11.8711C13.4193 11.0159 12.7261 10.3227 11.8709 10.3227C11.0157 10.3227 10.3225 11.0159 10.3225 11.8711ZM1.54847 13.4194C0.693314 13.4194 8.39233e-05 12.7262 8.39233e-05 11.8711C8.39233e-05 11.0159 0.693314 10.3227 1.54847 10.3227C2.40362 10.3227 3.09686 11.0159 3.09686 11.8711C3.09686 12.7262 2.40362 13.4194 1.54847 13.4194ZM82.5808 22.1936C82.5808 23.0487 83.274 23.742 84.1292 23.742C84.9843 23.742 85.6776 23.0487 85.6776 22.1936C85.6776 21.3384 84.9843 20.6452 84.1292 20.6452C83.274 20.6452 82.5808 21.3384 82.5808 22.1936ZM92.9032 22.1937C92.9032 23.0488 93.5965 23.742 94.4516 23.742C95.3068 23.742 96 23.0488 96 22.1937C96 21.3385 95.3068 20.6453 94.4516 20.6453C93.5965 20.6453 92.9032 21.3385 92.9032 22.1937ZM73.8061 23.742C72.951 23.742 72.2577 23.0487 72.2577 22.1936C72.2577 21.3384 72.951 20.6452 73.8061 20.6452C74.6613 20.6452 75.3545 21.3384 75.3545 22.1936C75.3545 23.0487 74.6613 23.742 73.8061 23.742ZM61.9353 22.1936C61.9353 23.0487 62.6285 23.742 63.4837 23.742C64.3388 23.742 65.0321 23.0487 65.0321 22.1936C65.0321 21.3384 64.3388 20.6452 63.4837 20.6452C62.6285 20.6452 61.9353 21.3384 61.9353 22.1936ZM53.1613 23.742C52.3061 23.742 51.6129 23.0487 51.6129 22.1936C51.6129 21.3384 52.3061 20.6452 53.1613 20.6452C54.0164 20.6452 54.7096 21.3384 54.7096 22.1936C54.7096 23.0487 54.0164 23.742 53.1613 23.742ZM41.2904 22.1936C41.2904 23.0487 41.9837 23.742 42.8388 23.742C43.694 23.742 44.3872 23.0487 44.3872 22.1936C44.3872 21.3384 43.694 20.6452 42.8388 20.6452C41.9837 20.6452 41.2904 21.3384 41.2904 22.1936ZM32.5158 23.742C31.6606 23.742 30.9674 23.0487 30.9674 22.1936C30.9674 21.3384 31.6606 20.6452 32.5158 20.6452C33.3709 20.6452 34.0642 21.3384 34.0642 22.1936C34.0642 23.0487 33.3709 23.742 32.5158 23.742ZM20.645 22.1936C20.645 23.0487 21.3382 23.742 22.1933 23.742C23.0485 23.742 23.7417 23.0487 23.7417 22.1936C23.7417 21.3384 23.0485 20.6452 22.1933 20.6452C21.3382 20.6452 20.645 21.3384 20.645 22.1936ZM11.8709 23.742C11.0157 23.742 10.3225 23.0487 10.3225 22.1936C10.3225 21.3384 11.0157 20.6452 11.8709 20.6452C12.7261 20.6452 13.4193 21.3384 13.4193 22.1936C13.4193 23.0487 12.7261 23.742 11.8709 23.742ZM8.39233e-05 22.1936C8.39233e-05 23.0487 0.693314 23.742 1.54847 23.742C2.40362 23.742 3.09686 23.0487 3.09686 22.1936C3.09686 21.3384 2.40362 20.6452 1.54847 20.6452C0.693314 20.6452 8.39233e-05 21.3384 8.39233e-05 22.1936ZM84.1292 34.0645C83.274 34.0645 82.5808 33.3713 82.5808 32.5162C82.5808 31.661 83.274 30.9678 84.1292 30.9678C84.9843 30.9678 85.6776 31.661 85.6776 32.5162C85.6776 33.3713 84.9843 34.0645 84.1292 34.0645ZM94.4516 34.0645C93.5965 34.0645 92.9032 33.3713 92.9032 32.5162C92.9032 31.661 93.5965 30.9678 94.4516 30.9678C95.3068 30.9678 96 31.661 96 32.5162C96 33.3713 95.3068 34.0645 94.4516 34.0645ZM72.2577 32.5162C72.2577 33.3713 72.951 34.0645 73.8061 34.0645C74.6613 34.0645 75.3545 33.3713 75.3545 32.5162C75.3545 31.661 74.6613 30.9678 73.8061 30.9678C72.951 30.9678 72.2577 31.661 72.2577 32.5162ZM63.4837 34.0645C62.6285 34.0645 61.9353 33.3713 61.9353 32.5162C61.9353 31.661 62.6285 30.9678 63.4837 30.9678C64.3388 30.9678 65.0321 31.661 65.0321 32.5162C65.0321 33.3713 64.3388 34.0645 63.4837 34.0645ZM51.6129 32.5162C51.6129 33.3713 52.3061 34.0645 53.1613 34.0645C54.0164 34.0645 54.7096 33.3713 54.7096 32.5162C54.7096 31.661 54.0164 30.9678 53.1613 30.9678C52.3061 30.9678 51.6129 31.661 51.6129 32.5162ZM42.8388 34.0645C41.9837 34.0645 41.2904 33.3713 41.2904 32.5162C41.2904 31.661 41.9837 30.9678 42.8388 30.9678C43.694 30.9678 44.3872 31.661 44.3872 32.5162C44.3872 33.3713 43.694 34.0645 42.8388 34.0645ZM30.9674 32.5162C30.9674 33.3713 31.6606 34.0645 32.5158 34.0645C33.3709 34.0645 34.0642 33.3713 34.0642 32.5162C34.0642 31.661 33.3709 30.9678 32.5158 30.9678C31.6606 30.9678 30.9674 31.661 30.9674 32.5162ZM22.1933 34.0645C21.3382 34.0645 20.645 33.3713 20.645 32.5162C20.645 31.661 21.3382 30.9678 22.1933 30.9678C23.0485 30.9678 23.7417 31.661 23.7417 32.5162C23.7417 33.3713 23.0485 34.0645 22.1933 34.0645ZM10.3225 32.5162C10.3225 33.3713 11.0157 34.0645 11.8709 34.0645C12.7261 34.0645 13.4193 33.3713 13.4193 32.5162C13.4193 31.661 12.7261 30.9678 11.8709 30.9678C11.0157 30.9678 10.3225 31.661 10.3225 32.5162ZM1.54847 34.0645C0.693314 34.0645 8.39233e-05 33.3713 8.39233e-05 32.5162C8.39233e-05 31.661 0.693314 30.9678 1.54847 30.9678C2.40362 30.9678 3.09686 31.661 3.09686 32.5162C3.09686 33.3713 2.40362 34.0645 1.54847 34.0645ZM92.9032 42.8387C92.9032 43.6939 93.5965 44.3871 94.4516 44.3871C95.3068 44.3871 96 43.6939 96 42.8387C96 41.9836 95.3068 41.2904 94.4516 41.2904C93.5965 41.2904 92.9032 41.9836 92.9032 42.8387ZM82.5808 42.8388C82.5808 43.694 83.274 44.3872 84.1292 44.3872C84.9843 44.3872 85.6776 43.694 85.6776 42.8388C85.6776 41.9837 84.9843 41.2904 84.1292 41.2904C83.274 41.2904 82.5808 41.9837 82.5808 42.8388ZM73.8061 44.3872C72.951 44.3872 72.2577 43.694 72.2577 42.8388C72.2577 41.9837 72.951 41.2904 73.8061 41.2904C74.6613 41.2904 75.3545 41.9837 75.3545 42.8388C75.3545 43.694 74.6613 44.3872 73.8061 44.3872ZM61.9353 42.8388C61.9353 43.694 62.6285 44.3872 63.4837 44.3872C64.3388 44.3872 65.0321 43.694 65.0321 42.8388C65.0321 41.9837 64.3388 41.2904 63.4837 41.2904C62.6285 41.2904 61.9353 41.9837 61.9353 42.8388ZM53.1613 44.3872C52.3061 44.3872 51.6129 43.694 51.6129 42.8388C51.6129 41.9837 52.3061 41.2904 53.1613 41.2904C54.0164 41.2904 54.7096 41.9837 54.7096 42.8388C54.7096 43.694 54.0164 44.3872 53.1613 44.3872ZM41.2904 42.8388C41.2904 43.694 41.9837 44.3872 42.8388 44.3872C43.694 44.3872 44.3872 43.694 44.3872 42.8388C44.3872 41.9837 43.694 41.2904 42.8388 41.2904C41.9837 41.2904 41.2904 41.9837 41.2904 42.8388ZM32.5158 44.3872C31.6606 44.3872 30.9674 43.694 30.9674 42.8388C30.9674 41.9837 31.6606 41.2904 32.5158 41.2904C33.3709 41.2904 34.0642 41.9837 34.0642 42.8388C34.0642 43.694 33.3709 44.3872 32.5158 44.3872ZM20.645 42.8388C20.645 43.694 21.3382 44.3872 22.1933 44.3872C23.0485 44.3872 23.7417 43.694 23.7417 42.8388C23.7417 41.9837 23.0485 41.2904 22.1933 41.2904C21.3382 41.2904 20.645 41.9837 20.645 42.8388ZM11.8709 44.3872C11.0157 44.3872 10.3225 43.694 10.3225 42.8388C10.3225 41.9837 11.0157 41.2904 11.8709 41.2904C12.7261 41.2904 13.4193 41.9837 13.4193 42.8388C13.4193 43.694 12.7261 44.3872 11.8709 44.3872ZM8.39233e-05 42.8388C8.39233e-05 43.694 0.693314 44.3872 1.54847 44.3872C2.40362 44.3872 3.09686 43.694 3.09686 42.8388C3.09686 41.9837 2.40362 41.2904 1.54847 41.2904C0.693314 41.2904 8.39233e-05 41.9837 8.39233e-05 42.8388ZM84.1292 54.7097C83.274 54.7097 82.5808 54.0165 82.5808 53.1613C82.5808 52.3062 83.274 51.6129 84.1292 51.6129C84.9843 51.6129 85.6776 52.3062 85.6776 53.1613C85.6776 54.0165 84.9843 54.7097 84.1292 54.7097ZM94.4516 54.7098C93.5965 54.7098 92.9032 54.0166 92.9032 53.1614C92.9032 52.3063 93.5965 51.613 94.4516 51.613C95.3068 51.613 96 52.3063 96 53.1614C96 54.0166 95.3068 54.7098 94.4516 54.7098ZM72.2577 53.1613C72.2577 54.0165 72.951 54.7097 73.8061 54.7097C74.6613 54.7097 75.3545 54.0165 75.3545 53.1613C75.3545 52.3062 74.6613 51.6129 73.8061 51.6129C72.951 51.6129 72.2577 52.3062 72.2577 53.1613ZM63.4837 54.7097C62.6285 54.7097 61.9353 54.0165 61.9353 53.1613C61.9353 52.3062 62.6285 51.6129 63.4837 51.6129C64.3388 51.6129 65.0321 52.3062 65.0321 53.1613C65.0321 54.0165 64.3388 54.7097 63.4837 54.7097ZM51.6129 53.1613C51.6129 54.0165 52.3061 54.7097 53.1613 54.7097C54.0164 54.7097 54.7096 54.0165 54.7096 53.1613C54.7096 52.3062 54.0164 51.6129 53.1613 51.6129C52.3061 51.6129 51.6129 52.3062 51.6129 53.1613ZM42.8388 54.7097C41.9837 54.7097 41.2904 54.0165 41.2904 53.1613C41.2904 52.3062 41.9837 51.6129 42.8388 51.6129C43.694 51.6129 44.3872 52.3062 44.3872 53.1613C44.3872 54.0165 43.694 54.7097 42.8388 54.7097ZM30.9674 53.1613C30.9674 54.0165 31.6606 54.7097 32.5158 54.7097C33.3709 54.7097 34.0642 54.0165 34.0642 53.1613C34.0642 52.3062 33.3709 51.6129 32.5158 51.6129C31.6606 51.6129 30.9674 52.3062 30.9674 53.1613ZM22.1933 54.7097C21.3382 54.7097 20.645 54.0165 20.645 53.1613C20.645 52.3062 21.3382 51.6129 22.1933 51.6129C23.0485 51.6129 23.7417 52.3062 23.7417 53.1613C23.7417 54.0165 23.0485 54.7097 22.1933 54.7097ZM10.3225 53.1613C10.3225 54.0165 11.0157 54.7097 11.8709 54.7097C12.7261 54.7097 13.4193 54.0165 13.4193 53.1613C13.4193 52.3062 12.7261 51.6129 11.8709 51.6129C11.0157 51.6129 10.3225 52.3062 10.3225 53.1613ZM1.54847 54.7097C0.693314 54.7097 8.39233e-05 54.0165 8.39233e-05 53.1613C8.39233e-05 52.3062 0.693314 51.6129 1.54847 51.6129C2.40362 51.6129 3.09686 52.3062 3.09686 53.1613C3.09686 54.0165 2.40362 54.7097 1.54847 54.7097ZM82.5808 63.4839C82.5808 64.3391 83.274 65.0323 84.1292 65.0323C84.9843 65.0323 85.6776 64.3391 85.6776 63.4839C85.6776 62.6288 84.9843 61.9355 84.1292 61.9355C83.274 61.9355 82.5808 62.6288 82.5808 63.4839ZM92.9032 63.4839C92.9032 64.3391 93.5965 65.0323 94.4516 65.0323C95.3068 65.0323 96 64.3391 96 63.4839C96 62.6288 95.3068 61.9355 94.4516 61.9355C93.5965 61.9355 92.9032 62.6288 92.9032 63.4839ZM73.8061 65.0323C72.951 65.0323 72.2577 64.3391 72.2577 63.4839C72.2577 62.6288 72.951 61.9355 73.8061 61.9355C74.6613 61.9355 75.3545 62.6288 75.3545 63.4839C75.3545 64.3391 74.6613 65.0323 73.8061 65.0323ZM61.9353 63.4839C61.9353 64.3391 62.6285 65.0323 63.4837 65.0323C64.3388 65.0323 65.0321 64.3391 65.0321 63.4839C65.0321 62.6288 64.3388 61.9355 63.4837 61.9355C62.6285 61.9355 61.9353 62.6288 61.9353 63.4839ZM53.1613 65.0323C52.3061 65.0323 51.6129 64.3391 51.6129 63.4839C51.6129 62.6288 52.3061 61.9355 53.1613 61.9355C54.0164 61.9355 54.7096 62.6288 54.7096 63.4839C54.7096 64.3391 54.0164 65.0323 53.1613 65.0323ZM41.2904 63.4839C41.2904 64.3391 41.9837 65.0323 42.8388 65.0323C43.694 65.0323 44.3872 64.3391 44.3872 63.4839C44.3872 62.6288 43.694 61.9355 42.8388 61.9355C41.9837 61.9355 41.2904 62.6288 41.2904 63.4839ZM32.5158 65.0323C31.6606 65.0323 30.9674 64.3391 30.9674 63.4839C30.9674 62.6288 31.6606 61.9355 32.5158 61.9355C33.3709 61.9355 34.0642 62.6288 34.0642 63.4839C34.0642 64.3391 33.3709 65.0323 32.5158 65.0323ZM20.645 63.4839C20.645 64.3391 21.3382 65.0323 22.1933 65.0323C23.0485 65.0323 23.7417 64.3391 23.7417 63.4839C23.7417 62.6288 23.0485 61.9355 22.1933 61.9355C21.3382 61.9355 20.645 62.6288 20.645 63.4839ZM11.8709 65.0323C11.0157 65.0323 10.3225 64.3391 10.3225 63.4839C10.3225 62.6288 11.0157 61.9355 11.8709 61.9355C12.7261 61.9355 13.4193 62.6288 13.4193 63.4839C13.4193 64.3391 12.7261 65.0323 11.8709 65.0323ZM8.39233e-05 63.4839C8.39233e-05 64.3391 0.693314 65.0323 1.54847 65.0323C2.40362 65.0323 3.09686 64.3391 3.09686 63.4839C3.09686 62.6288 2.40362 61.9355 1.54847 61.9355C0.693314 61.9355 8.39233e-05 62.6288 8.39233e-05 63.4839ZM94.4516 75.3549C93.5965 75.3549 92.9032 74.6617 92.9032 73.8065C92.9032 72.9514 93.5965 72.2581 94.4516 72.2581C95.3068 72.2581 96 72.9514 96 73.8065C96 74.6617 95.3068 75.3549 94.4516 75.3549ZM84.1292 75.355C83.274 75.355 82.5808 74.6617 82.5808 73.8066C82.5808 72.9514 83.274 72.2582 84.1292 72.2582C84.9843 72.2582 85.6776 72.9514 85.6776 73.8066C85.6776 74.6617 84.9843 75.355 84.1292 75.355ZM72.2577 73.8066C72.2577 74.6617 72.951 75.355 73.8061 75.355C74.6613 75.355 75.3545 74.6617 75.3545 73.8066C75.3545 72.9514 74.6613 72.2582 73.8061 72.2582C72.951 72.2582 72.2577 72.9514 72.2577 73.8066ZM63.4837 75.355C62.6285 75.355 61.9353 74.6617 61.9353 73.8066C61.9353 72.9514 62.6285 72.2582 63.4837 72.2582C64.3388 72.2582 65.0321 72.9514 65.0321 73.8066C65.0321 74.6617 64.3388 75.355 63.4837 75.355ZM51.6129 73.8066C51.6129 74.6617 52.3061 75.355 53.1613 75.355C54.0164 75.355 54.7096 74.6617 54.7096 73.8066C54.7096 72.9514 54.0164 72.2582 53.1613 72.2582C52.3061 72.2582 51.6129 72.9514 51.6129 73.8066ZM42.8388 75.355C41.9837 75.355 41.2904 74.6617 41.2904 73.8066C41.2904 72.9514 41.9837 72.2582 42.8388 72.2582C43.694 72.2582 44.3872 72.9514 44.3872 73.8066C44.3872 74.6617 43.694 75.355 42.8388 75.355ZM30.9674 73.8066C30.9674 74.6617 31.6606 75.355 32.5158 75.355C33.3709 75.355 34.0642 74.6617 34.0642 73.8066C34.0642 72.9514 33.3709 72.2582 32.5158 72.2582C31.6606 72.2582 30.9674 72.9514 30.9674 73.8066ZM22.1933 75.355C21.3382 75.355 20.645 74.6617 20.645 73.8066C20.645 72.9514 21.3382 72.2582 22.1933 72.2582C23.0485 72.2582 23.7417 72.9514 23.7417 73.8066C23.7417 74.6617 23.0485 75.355 22.1933 75.355ZM10.3225 73.8066C10.3225 74.6617 11.0157 75.355 11.8709 75.355C12.7261 75.355 13.4193 74.6617 13.4193 73.8066C13.4193 72.9514 12.7261 72.2582 11.8709 72.2582C11.0157 72.2582 10.3225 72.9514 10.3225 73.8066ZM1.54847 75.355C0.693314 75.355 8.39233e-05 74.6617 8.39233e-05 73.8066C8.39233e-05 72.9514 0.693314 72.2582 1.54847 72.2582C2.40362 72.2582 3.09686 72.9514 3.09686 73.8066C3.09686 74.6617 2.40362 75.355 1.54847 75.355ZM82.5808 84.1291C82.5808 84.9843 83.274 85.6775 84.1292 85.6775C84.9843 85.6775 85.6776 84.9843 85.6776 84.1291C85.6776 83.2739 84.9843 82.5807 84.1292 82.5807C83.274 82.5807 82.5808 83.2739 82.5808 84.1291ZM92.9032 84.1292C92.9032 84.9843 93.5965 85.6776 94.4516 85.6776C95.3068 85.6776 96 84.9843 96 84.1292C96 83.274 95.3068 82.5808 94.4516 82.5808C93.5965 82.5808 92.9032 83.274 92.9032 84.1292ZM73.8061 85.6775C72.951 85.6775 72.2577 84.9843 72.2577 84.1291C72.2577 83.2739 72.951 82.5807 73.8061 82.5807C74.6613 82.5807 75.3545 83.2739 75.3545 84.1291C75.3545 84.9843 74.6613 85.6775 73.8061 85.6775ZM61.9353 84.1291C61.9353 84.9843 62.6285 85.6775 63.4837 85.6775C64.3388 85.6775 65.0321 84.9843 65.0321 84.1291C65.0321 83.2739 64.3388 82.5807 63.4837 82.5807C62.6285 82.5807 61.9353 83.2739 61.9353 84.1291ZM53.1613 85.6775C52.3061 85.6775 51.6129 84.9843 51.6129 84.1291C51.6129 83.2739 52.3061 82.5807 53.1613 82.5807C54.0164 82.5807 54.7096 83.2739 54.7096 84.1291C54.7096 84.9843 54.0164 85.6775 53.1613 85.6775ZM41.2904 84.1291C41.2904 84.9843 41.9837 85.6775 42.8388 85.6775C43.694 85.6775 44.3872 84.9843 44.3872 84.1291C44.3872 83.2739 43.694 82.5807 42.8388 82.5807C41.9837 82.5807 41.2904 83.2739 41.2904 84.1291ZM32.5158 85.6775C31.6606 85.6775 30.9674 84.9843 30.9674 84.1291C30.9674 83.2739 31.6606 82.5807 32.5158 82.5807C33.3709 82.5807 34.0642 83.2739 34.0642 84.1291C34.0642 84.9843 33.3709 85.6775 32.5158 85.6775ZM20.645 84.1291C20.645 84.9843 21.3382 85.6775 22.1933 85.6775C23.0485 85.6775 23.7417 84.9843 23.7417 84.1291C23.7417 83.2739 23.0485 82.5807 22.1933 82.5807C21.3382 82.5807 20.645 83.2739 20.645 84.1291ZM11.8709 85.6775C11.0157 85.6775 10.3225 84.9843 10.3225 84.1291C10.3225 83.2739 11.0157 82.5807 11.8709 82.5807C12.7261 82.5807 13.4193 83.2739 13.4193 84.1291C13.4193 84.9843 12.7261 85.6775 11.8709 85.6775ZM8.39233e-05 84.1291C8.39233e-05 84.9843 0.693314 85.6775 1.54847 85.6775C2.40362 85.6775 3.09686 84.9843 3.09686 84.1291C3.09686 83.2739 2.40362 82.5807 1.54847 82.5807C0.693314 82.5807 8.39233e-05 83.2739 8.39233e-05 84.1291ZM82.5808 94.4517C82.5808 95.3068 83.274 96.0001 84.1292 96.0001C84.9843 96.0001 85.6776 95.3068 85.6776 94.4517C85.6776 93.5965 84.9843 92.9033 84.1292 92.9033C83.274 92.9033 82.5808 93.5965 82.5808 94.4517ZM92.9032 94.4517C92.9032 95.3069 93.5965 96.0001 94.4516 96.0001C95.3068 96.0001 96 95.3069 96 94.4517C96 93.5965 95.3068 92.9033 94.4516 92.9033C93.5965 92.9033 92.9032 93.5965 92.9032 94.4517ZM73.8061 96.0001C72.951 96.0001 72.2577 95.3068 72.2577 94.4517C72.2577 93.5965 72.951 92.9033 73.8061 92.9033C74.6613 92.9033 75.3545 93.5965 75.3545 94.4517C75.3545 95.3068 74.6613 96.0001 73.8061 96.0001ZM61.9353 94.4517C61.9353 95.3068 62.6285 96.0001 63.4837 96.0001C64.3388 96.0001 65.0321 95.3068 65.0321 94.4517C65.0321 93.5965 64.3388 92.9033 63.4837 92.9033C62.6285 92.9033 61.9353 93.5965 61.9353 94.4517ZM53.1613 96.0001C52.3061 96.0001 51.6129 95.3068 51.6129 94.4517C51.6129 93.5965 52.3061 92.9033 53.1613 92.9033C54.0164 92.9033 54.7096 93.5965 54.7096 94.4517C54.7096 95.3068 54.0164 96.0001 53.1613 96.0001ZM41.2904 94.4517C41.2904 95.3068 41.9837 96.0001 42.8388 96.0001C43.694 96.0001 44.3872 95.3068 44.3872 94.4517C44.3872 93.5965 43.694 92.9033 42.8388 92.9033C41.9837 92.9033 41.2904 93.5965 41.2904 94.4517ZM32.5158 96.0001C31.6606 96.0001 30.9674 95.3068 30.9674 94.4517C30.9674 93.5965 31.6606 92.9033 32.5158 92.9033C33.3709 92.9033 34.0642 93.5965 34.0642 94.4517C34.0642 95.3068 33.3709 96.0001 32.5158 96.0001ZM20.645 94.4517C20.645 95.3068 21.3382 96.0001 22.1933 96.0001C23.0485 96.0001 23.7417 95.3068 23.7417 94.4517C23.7417 93.5965 23.0485 92.9033 22.1933 92.9033C21.3382 92.9033 20.645 93.5965 20.645 94.4517ZM11.8709 96.0001C11.0157 96.0001 10.3225 95.3068 10.3225 94.4517C10.3225 93.5965 11.0157 92.9033 11.8709 92.9033C12.7261 92.9033 13.4193 93.5965 13.4193 94.4517C13.4193 95.3068 12.7261 96.0001 11.8709 96.0001ZM8.39233e-05 94.4517C8.39233e-05 95.3068 0.693314 96.0001 1.54847 96.0001C2.40362 96.0001 3.09686 95.3068 3.09686 94.4517C3.09686 93.5965 2.40362 92.9033 1.54847 92.9033C0.693314 92.9033 8.39233e-05 93.5965 8.39233e-05 94.4517Z" fill="#C5CED6"/>
</svg>